<?xml version="1.0" encoding="UTF-8" standalone="no"?>
<svg
   version="1.1"
   x="0px"
   y="0px"
   viewBox="0 0 100 90.842621"
   xml:space="preserve"
   id="svg38"
   width="100"
   height="90.842621"
   xmlns="http://www.w3.org/2000/svg"
   xmlns:svg="http://www.w3.org/2000/svg"><defs
     id="defs42" /><g
     id="g32"
     transform="matrix(-1,0,0,1,100,-4.5787002)"
     style="fill:#f9f9f9"><path
       d="m 7.42893,90.67104 c -3.28668,0 -5.33276,-0.90369 -6.77768,-2.06081 C 0.61589,88.58077 0.58151,88.55129 0.54713,88.51986 0.50489,88.48057 0.46462,88.43932 0.42729,88.3961 c -9.8e-4,0 -9.8e-4,0 -9.8e-4,0 -9.8e-4,0 -9.8e-4,-0.002 -9.8e-4,-0.002 C 0.16405,88.09748 0.00492,87.71048 9.9e-4,87.28613 0,87.28417 0,87.28417 0,87.2822 v 0 c 0,-0.01179 0,-0.02161 0,-0.03339 0,0 0.00196,-0.002 9.8e-4,-0.0059 0,0 0,0 0,-0.002 v 0 c 0,-0.0098 0,-0.01965 0,-0.0275 C 0.19645,80.27464 4.12751,74.104 11.68512,68.86652 15.56903,66.13187 22.43413,58.4171 33.02696,37.23144 c 0.42336,-0.84475 1.45475,-1.18658 2.29557,-0.76519 0.84475,0.42238 1.18757,1.45082 0.76519,2.29557 C 27.32683,56.28168 19.7761,67.35386 13.64475,71.67193 7.73147,75.76801 4.35834,80.39844 3.58726,85.46304 18.08954,84.02892 48.6284,66.1771 94.44259,32.34369 c 0.62473,-0.46167 1.4852,-0.44497 2.09224,0.04617 2.97433,2.40952 4.04304,4.95655 3.17078,7.57234 -0.11591,0.34772 -0.33987,0.64928 -0.63847,0.85949 C 41.47746,81.28642 18.0198,90.67104 7.42893,90.67104 Z M 95.34824,35.92603 C 58.38728,63.16348 31.80206,79.72263 14.82937,86.04061 27.69125,82.38263 51.89151,69.75256 96.56626,38.39645 96.60752,37.8837 96.4425,37.06056 95.34824,35.92603 Z"
       id="path2"
       style="fill:#f9f9f9" /><path
       d="m 41.1867,41.86289 c -2.88002,0 -6.08715,-1.2691 -9.57127,-3.79157 -0.65812,-0.47738 -0.89092,-1.35062 -0.55597,-2.09126 3.63638,-8.0399 6.7158,-11.68021 10.29815,-12.17233 3.95267,-0.54123 7.51242,2.99692 10.47692,6.53212 0.40175,0.47935 0.51176,1.14042 0.28191,1.7229 -2.05,5.2365 -4.86225,8.41121 -8.35914,9.4367 -0.82412,0.24262 -1.68164,0.36344 -2.5706,0.36344 z M 34.77737,36.094 c 3.15506,2.04411 5.84452,2.75724 8.01731,2.12269 2.23958,-0.65714 4.17171,-2.82895 5.74924,-6.46139 -2.91637,-3.33187 -5.04889,-4.79447 -6.72071,-4.55775 -2.02937,0.27897 -4.33968,3.19239 -7.04584,8.89645 z"
       id="path4"
       style="fill:#f9f9f9" /><path
       d="m 20.95974,67.70551 c -1.28088,0 -2.54605,-0.2495 -3.79943,-0.74849 -0.87815,-0.34772 -1.30741,-1.34375 -0.9587,-2.21994 0.34871,-0.87815 1.34277,-1.30838 2.2219,-0.95869 6.64508,2.63642 15.12799,-6.06259 24.52048,-25.1678 0.41747,-0.84672 1.44394,-1.19641 2.28968,-0.78091 0.84868,0.41648 1.19739,1.44198 0.78091,2.28968 -9.09291,18.49423 -17.33123,27.58615 -25.05484,27.58615 z"
       id="path6"
       style="fill:#f9f9f9" /><path
       d="m 95.45826,35.43097 c -0.0039,0 -0.0098,0 -0.01375,0 -0.94495,-0.0079 -1.70523,-0.77992 -1.69737,-1.72487 0.05305,-6.46925 -3.13541,-11.97194 -9.47501,-16.35484 -3.1197,-1.53726 -5.71093,-3.32401 -7.75602,-5.34258 0.0059,5.97615 -1.5461,10.74999 -4.6383,14.23903 -4.27485,4.82591 -11.47491,7.15782 -21.39587,6.90145 -0.94495,-0.02357 -1.69147,-0.80841 -1.6679,-1.75237 0.02259,-0.94495 0.83984,-1.65317 1.75238,-1.6679 8.86206,0.21512 15.17415,-1.71407 18.75159,-5.75023 3.35938,-3.79157 4.48702,-9.65869 3.34759,-17.44025 -0.11984,-0.82707 0.37522,-1.62075 1.17087,-1.87614 0.7976,-0.25932 1.662,0.10216 2.04313,0.84475 1.79755,3.48805 5.16479,6.45746 10.01132,8.8267 0.07465,0.03733 0.14538,0.07956 0.2161,0.12671 7.4024,5.07737 11.12325,11.56135 11.06236,19.27318 -0.0079,0.94002 -0.77206,1.69736 -1.71112,1.69736 z"
       id="path8"
       style="fill:#f9f9f9" /><path
       d="m 27.65688,57.15786 c -0.17484,0 -0.35362,-0.0275 -0.52945,-0.08447 l -2.28084,-0.7426 c -0.89878,-0.29272 -1.38992,-1.25731 -1.0972,-2.15707 0.29272,-0.89584 1.25731,-1.38697 2.15609,-1.09622 l 2.28084,0.7426 c 0.89878,0.29272 1.38992,1.25731 1.0972,2.15707 -0.23476,0.72099 -0.90566,1.18069 -1.62664,1.18069 z"
       id="path10"
       style="fill:#f9f9f9" /><path
       d="m 31.307,50.94106 c -0.13064,0 -0.26423,-0.01473 -0.39684,-0.04715 l -2.39478,-0.56972 c -0.91941,-0.21806 -1.48716,-1.14042 -1.26811,-2.05983 0.21905,-0.91744 1.14729,-1.48716 2.05983,-1.26812 l 2.39478,0.56972 c 0.91941,0.21806 1.48716,1.14042 1.26812,2.05983 -0.18664,0.78582 -0.88798,1.31527 -1.663,1.31527 z"
       id="path12"
       style="fill:#f9f9f9" /><path
       d="m 35.12902,44.89713 c -0.10707,0 -0.2161,-0.0098 -0.32513,-0.03143 L 31.83841,44.295 c -0.92825,-0.17878 -1.53529,-1.07559 -1.35652,-2.00285 0.17877,-0.92628 1.07755,-1.53333 2.00285,-1.35652 l 2.96548,0.5707 c 0.92825,0.17878 1.53529,1.07559 1.35652,2.00285 -0.15716,0.81823 -0.87421,1.38795 -1.67772,1.38795 z"
       id="path14"
       style="fill:#f9f9f9" /><path
       d="m 87.18948,41.47489 c -0.1827,0 -0.36737,-0.02947 -0.55007,-0.09135 -6.37691,-2.16198 -12.90117,-2.43604 -19.39203,-0.8143 -0.78778,0.19252 -1.607,-0.18761 -1.95669,-0.92039 -0.35165,-0.73277 -0.13948,-1.61191 0.50882,-2.10305 4.68544,-3.55386 6.95252,-10.18126 6.73446,-19.69653 -0.02161,-0.94495 0.72688,-1.72782 1.67183,-1.74943 0.01376,0 0.0275,-9.8e-4 0.03929,-9.8e-4 0.92727,0 1.68951,0.74063 1.71112,1.67183 0.17877,7.92007 -1.27106,14.13 -4.32397,18.5463 5.40446,-0.58445 10.79714,0.0275 16.10732,1.82703 0.89387,0.30254 1.37321,1.27401 1.07067,2.16886 -0.24163,0.71311 -0.90761,1.16201 -1.62075,1.16201 z"
       id="path16"
       style="fill:#f9f9f9" /><path
       d="m 58.45211,61.49165 c -0.11001,0 -0.22199,-0.0098 -0.33397,-0.0334 C 50.04975,59.86697 42.722,57.39754 36.34115,54.11478 35.50033,53.68454 35.1693,52.65316 35.6015,51.81233 c 0.4322,-0.84181 1.4685,-1.17185 2.30343,-0.73965 6.09697,3.13443 13.12022,5.49974 20.87723,7.03012 0.9253,0.1827 1.52842,1.08247 1.34571,2.00973 -0.15913,0.81333 -0.87619,1.37912 -1.67576,1.37912 z"
       id="path18"
       style="fill:#f9f9f9" /><path
       d="m 49.38279,67.36368 c -0.1719,0 -0.34772,-0.02554 -0.5206,-0.08251 -6.97021,-2.2278 -12.64087,-4.79153 -16.8558,-7.62048 -0.78385,-0.5265 -0.99308,-1.58932 -0.46658,-2.37317 0.52552,-0.78582 1.58735,-0.99603 2.37415,-0.46756 3.94677,2.65017 9.32668,5.07246 15.98944,7.20399 0.90074,0.28683 1.39679,1.24945 1.10899,2.14922 -0.23281,0.72687 -0.90469,1.19051 -1.6296,1.19051 z"
       id="path20"
       style="fill:#f9f9f9" /><path
       d="m 93.69213,50.94106 c -0.38309,0 -0.76421,-0.12868 -1.07657,-0.38112 L 88.10889,46.9108 c -0.73474,-0.59526 -0.84672,-1.67183 -0.25343,-2.40657 0.59329,-0.73278 1.67183,-0.84967 2.40657,-0.25343 l 3.54404,2.8702 1.16301,-0.74849 -1.5677,-4.18252 c -0.33201,-0.88503 0.11591,-1.87123 0.99995,-2.20324 0.88404,-0.32611 1.87221,0.11689 2.20226,1.00094 l 2.05295,5.47421 c 0.2829,0.75439 0.002,1.60307 -0.67384,2.0392 l -3.3633,2.16689 c -0.28486,0.1827 -0.60508,0.27307 -0.92727,0.27307 z"
       id="path22"
       style="fill:#f9f9f9" /><path
       d="m 81.88718,59.4387 c -0.37916,0 -0.75832,-0.12573 -1.06871,-0.37523 l -4.84653,-3.87801 c -0.73867,-0.59133 -0.85654,-1.6679 -0.26718,-2.4046 0.5874,-0.73671 1.66201,-0.85851 2.40461,-0.26718 l 3.89765,3.1197 1.14533,-0.71902 -1.72094,-4.50274 c -0.33791,-0.88306 0.10412,-1.87123 0.9862,-2.20913 0.87619,-0.33496 1.87222,0.10314 2.20815,0.98718 l 2.22386,5.81702 c 0.29272,0.76421 0.0039,1.62664 -0.68758,2.06081 l -3.36527,2.10992 c -0.27897,0.17484 -0.59526,0.26128 -0.90959,0.26128 z"
       id="path24"
       style="fill:#f9f9f9" /><path
       d="m 15.4541,95.42132 c -0.60312,0 -1.17087,-0.31825 -1.48028,-0.85458 l -3.1364,-5.41822 c -0.47346,-0.81725 -0.19449,-1.86435 0.62276,-2.33781 0.8202,-0.47149 1.86534,-0.19253 2.33781,0.62473 l 2.52935,4.36915 1.34964,-0.25539 v -5.31017 c 0,-0.94495 0.76617,-1.71111 1.71112,-1.71111 0.94495,0 1.71112,0.76617 1.71112,1.71111 v 6.72857 c 0,0.82315 -0.58544,1.52842 -1.39385,1.68166 l -3.934,0.7426 c -0.10608,0.01964 -0.21217,0.02946 -0.31727,0.02946 z"
       id="path26"
       style="fill:#f9f9f9" /><path
       d="m 33.58784,88.57684 c -0.48819,0 -0.96557,-0.21021 -1.29758,-0.59722 l -4.16287,-4.84653 c -0.61588,-0.7151 -0.53337,-1.7956 0.1827,-2.41247 0.71902,-0.6149 1.79854,-0.53239 2.41246,0.18467 l 3.37705,3.93106 1.2632,-0.48524 -0.95084,-5.33964 c -0.16502,-0.93119 0.45479,-1.81917 1.38501,-1.98419 0.92628,-0.18074 1.81917,0.45577 1.98419,1.38304 l 1.19739,6.73054 c 0.14341,0.80743 -0.30549,1.60307 -1.07068,1.89775 l -3.70612,1.42429 c -0.20037,0.07661 -0.40763,0.11394 -0.61391,0.11394 z"
       id="path28"
       style="fill:#f9f9f9" /><path
       d="m 51.15088,79.6244 c -0.42631,0 -0.84869,-0.15913 -1.17382,-0.4656 l -5.01843,-4.73259 c -0.68759,-0.6483 -0.71902,-1.73273 -0.07072,-2.41835 0.6483,-0.68956 1.73077,-0.71706 2.41836,-0.07269 l 4.13635,3.90159 1.21409,-0.62669 -1.55494,-5.43787 c -0.25932,-0.90762 0.26718,-1.85453 1.17578,-2.11385 0.91548,-0.25735 1.85649,0.26521 2.11385,1.1748 l 1.93901,6.78555 c 0.22396,0.78385 -0.13556,1.61485 -0.86047,1.99008 l -3.53422,1.82507 c -0.24852,0.12769 -0.51766,0.19055 -0.78484,0.19055 z"
       id="path30"
       style="fill:#f9f9f9" /></g><text
     x="3.4856848e-06"
     y="110.4213"
     fill="#000000"
     font-size="5px"
     font-weight="bold"
     font-family="'Helvetica Neue', Helvetica, Arial-Unicode, Arial, Sans-serif"
     id="text34" /><text
     x="3.4856848e-06"
     y="115.4213"
     fill="#000000"
     font-size="5px"
     font-weight="bold"
     font-family="'Helvetica Neue', Helvetica, Arial-Unicode, Arial, Sans-serif"
     id="text36" /></svg>
